<svg xmlns="http://www.w3.org/2000/svg">
  <style>:root svg:not(:target) { display: none }</style>

  <svg id="arrow-right" width="32" height="12" viewBox="0 0 32 12" fill="currentColor">
    <line y1="6" x2="18" y2="6" stroke="black" stroke-width="2"/>
    <path d="M24 6L17.25 11.1962L17.25 0.803848L24 6Z"/>
  </svg>

  <!-- logo -->

  <svg id="logo-text" width="128" height="24" viewBox="0 0 128 24" fill="currentColor">
    <path d="M1.6236 21.9574C0.489608 20.2815 -0.0733133 18.2722 0.0213584 16.2383V7.7617C-0.115966 5.70593 0.411707 3.66097 1.52346 1.94043C2.62499 0.612766 4.32737 0 6.83086 0C9.33436 0 10.9366 0.612766 11.938 1.73617C13.0252 3.15904 13.56 4.9407 13.4401 6.74043V8.78298H8.53324V6.43404C8.57287 5.73932 8.47057 5.04378 8.23282 4.39149C8.10574 4.12819 7.90433 3.90969 7.65449 3.76409C7.40465 3.61849 7.11781 3.55245 6.83086 3.57447C6.12989 3.57447 5.62919 3.77872 5.42891 4.28936C5.20237 5.015 5.10073 5.77516 5.12849 6.53617V17.4638C5.0756 18.2022 5.21373 18.9417 5.52905 19.6085C5.72933 20.1192 6.23003 20.3234 6.931 20.3234C7.63198 20.3234 8.03254 20.1192 8.23282 19.6085C8.4605 18.9183 8.56232 18.1914 8.53324 17.4638V15.0128H13.4401V17.0553C13.5419 18.8844 13.0103 20.6918 11.938 22.1617C10.9366 23.3872 9.23422 24 6.83086 24C4.42751 23.8979 2.62499 23.2851 1.6236 21.9574Z"/>
    <path d="M19.3483 0.306396H25.0563L29.2622 23.5915H24.6557L23.8546 18.6894H20.55L19.7489 23.5915H15.0423L19.3483 0.306396ZM23.454 15.6255L22.2524 6.53618L21.0507 15.6255H23.454Z"/>
    <path d="M32.767 4.18725H29.3623V0.306396H41.2789V4.08512H37.8742V23.5915H32.767V4.18725Z"/>
    <path d="M50.3916 0.306396H59.2039V2.75746H53.496V10.417H58.1024V12.766H53.496V21.3447H59.2039V23.6936H50.2915V0.306396H50.3916Z"/>
    <path d="M61.8076 0.306396H64.0107L70.5198 15.7277V0.306396H73.1234V23.5915H71.1206L64.5114 7.65959V23.5915H61.8076V0.306396Z"/>
    <path d="M76.1276 0.306396H84.9399V2.75746H79.2319V10.417H83.8383V12.766H79.2319V21.3447H84.9399V23.6936H76.1276V0.306396Z"/>
    <path d="M87.5435 0.306296H92.1499C93.962 0.178639 95.7629 0.682798 97.2571 1.73608C98.3586 2.65523 98.8593 4.28927 98.8593 6.43396C98.8593 9.39566 97.958 11.234 96.0554 11.8467L99.2599 23.4893H96.1555L93.1513 12.5616H90.6478V23.4893H87.4434V0.306296H87.5435ZM91.9497 10.3148C92.982 10.4016 94.011 10.1121 94.8537 9.49778C95.4546 8.98715 95.755 7.96587 95.755 6.43396C95.7827 5.67295 95.6811 4.91279 95.4546 4.18715C95.2292 3.66645 94.8421 3.23582 94.353 2.96162C93.6633 2.64108 92.9062 2.50069 92.1499 2.5531H90.748V10.2127H91.9497V10.3148Z"/>
    <path d="M102.865 21.8554C101.824 20.0697 101.335 18.0053 101.463 15.932V8.17025C101.438 6.69026 101.607 5.21349 101.964 3.77876C102.299 2.70664 102.967 1.77469 103.866 1.12344C104.984 0.448453 106.274 0.128462 107.571 0.204291C109.674 0.204291 111.177 0.714929 112.078 1.83833C113.115 3.32172 113.61 5.12795 113.48 6.94472V7.76174H110.476V7.04684C110.48 6.19152 110.413 5.33736 110.275 4.49365C110.191 3.96049 109.903 3.48313 109.474 3.16599C108.911 2.78921 108.243 2.60993 107.571 2.65535C106.853 2.60843 106.143 2.82587 105.569 3.26812C105.333 3.47055 105.141 3.71989 105.003 4.00086C104.865 4.28184 104.785 4.58853 104.768 4.90216C104.636 5.81517 104.569 6.73673 104.567 7.65961V16.3405C104.493 17.663 104.698 18.9863 105.168 20.2213C105.569 21.0383 106.37 21.3447 107.571 21.3447C108.046 21.405 108.527 21.3208 108.955 21.1028C109.383 20.8847 109.737 20.5425 109.975 20.1192C110.504 18.8277 110.743 17.432 110.676 16.0341V14.4H107.772V12.0511H113.58V23.5915H111.577L111.277 20.9362C111.014 21.8261 110.467 22.601 109.724 23.1376C108.98 23.6742 108.081 23.9419 107.171 23.8979C106.343 23.9475 105.517 23.7869 104.765 23.4304C104.014 23.0739 103.361 22.5327 102.865 21.8554Z"/>
    <path d="M119.989 15.4212L115.082 0.408447H118.086L121.591 11.6425L124.996 0.408447H128L123.093 15.4212V23.5914H120.089V15.4212H119.989Z"/>
  </svg>

  <!-- advantages -->

  <svg id="benefit-icon" aria-hidden="true" focusable="false" width="60" height="60" viewBox="0 0 60 60" fill="none">
    <!-- <rect width="60" height="60" fill="#68B738"/> -->
    <g clip-path="url(#clip0_95_18)">
      <path d="M42.8438 16.767C42.7434 16.317 42.3647 16 41.9325 16C41.9306 16 41.9288 16 41.9269 16C36.9891 16.033 24.9816 16.916 20.1337 24.38C17.6156 28.258 17.3991 33.293 19.4897 39.345C19.5056 39.392 19.5384 39.424 19.56 39.467C18.8128 41.44 18.5231 42.753 18.5156 42.79C18.4069 43.33 18.7303 43.862 19.2366 43.978C19.3022 43.993 19.3678 44 19.4334 44C19.8656 44 20.2547 43.679 20.3494 43.21C20.3691 43.108 22.7578 32.837 31.2028 26.832C31.6341 26.526 31.7503 25.905 31.4625 25.445C31.1747 24.985 30.5934 24.86 30.1622 25.168C25.3734 28.573 22.4241 33.176 20.6897 36.824C19.4484 32.246 19.7737 28.447 21.6759 25.519C25.4194 19.755 34.2984 18.365 39.6581 18.071C38.505 19.872 37.245 23.174 37.245 29C37.245 32.12 36.4153 34.522 34.7803 36.14C32.1591 38.731 27.9009 38.974 24.7866 38.724C24.2691 38.679 23.82 39.095 23.7806 39.646C23.7412 40.196 24.1284 40.676 24.6441 40.718C25.2675 40.769 25.9331 40.8 26.625 40.8C29.7956 40.8 33.4941 40.137 36.0544 37.606C38.0888 35.595 39.12 32.7 39.12 29.001C39.12 19.902 42.3356 17.905 42.3516 17.896C42.7416 17.687 42.9459 17.219 42.8438 16.767Z" fill="white"/>
    </g>
    <defs>
      <clipPath id="clip0_95_18">
        <rect width="30" height="32" fill="white" transform="translate(15 14)"/>
      </clipPath>
    </defs>
  </svg>

  <svg id="benefit-icon-tablet" aria-hidden="true" focusable="false" width="80" height="80" viewBox="0 0 80 80" fill="none">
    <!-- <rect width="80" height="80" fill="#68B738"/> -->
    <g clip-path="url(#clip0_2403_794)">
      <path d="M51.7754 27.767C51.6751 27.317 51.2963 27 50.8641 27C50.8623 27 50.8604 27 50.8585 27C45.9207 27.033 33.9132 27.916 29.0654 35.38C26.5473 39.258 26.3307 44.293 28.4213 50.345C28.4373 50.392 28.4701 50.424 28.4916 50.467C27.7444 52.44 27.4548 53.753 27.4473 53.79C27.3385 54.33 27.6619 54.862 28.1682 54.978C28.2338 54.993 28.2994 55 28.3651 55C28.7973 55 29.1863 54.679 29.281 54.21C29.3007 54.108 31.6894 43.837 40.1344 37.832C40.5657 37.526 40.6819 36.905 40.3941 36.445C40.1063 35.985 39.5251 35.86 39.0938 36.168C34.3051 39.573 31.3557 44.176 29.6213 47.824C28.3801 43.246 28.7054 39.447 30.6076 36.519C34.351 30.755 43.2301 29.365 48.5898 29.071C47.4366 30.872 46.1766 34.174 46.1766 40C46.1766 43.12 45.3469 45.522 43.7119 47.14C41.0907 49.731 36.8326 49.974 33.7182 49.724C33.2007 49.679 32.7516 50.095 32.7123 50.646C32.6729 51.196 33.0601 51.676 33.5757 51.718C34.1991 51.769 34.8648 51.8 35.5566 51.8C38.7273 51.8 42.4257 51.137 44.986 48.606C47.0204 46.595 48.0516 43.7 48.0516 40.001C48.0516 30.902 51.2673 28.905 51.2832 28.896C51.6732 28.687 51.8776 28.219 51.7754 27.767Z" fill="white"/>
    </g>
    <defs>
        <clipPath id="clip0_2403_794">
        <rect width="30" height="32" fill="white" transform="translate(24 25)"/>
        </clipPath>
    </defs>
  </svg>

  <svg id="product-type-icon" aria-hidden="true" focusable="false" width="60" height="60" viewBox="0 0 60 60" fill="none">
    <!-- <rect width="60" height="60" fill="#68B738"/> -->
    <path d="M28.375 16C26.7437 16 25.475 17.3594 25.475 19.0812C25.475 20.8031 26.7437 22.1625 28.375 22.1625C30.0063 22.1625 31.275 20.8031 31.275 19.0812C31.275 17.3594 30.0063 16 28.375 16ZM28.375 17.1781C29.3719 17.1781 30.0969 18.0209 30.0969 19.0812C30.0969 20.0781 29.3084 20.9844 28.375 20.9844C27.3781 20.9844 26.6531 20.1416 26.6531 19.0812C26.6531 18.0844 27.4325 17.1781 28.375 17.1781ZM17.5 40.7406C17.5 41.9188 17.9078 42.9156 18.8594 43.7313C19.8563 44.5831 21.0344 44.5106 21.0344 44.5106H40.0656C40.845 44.5106 41.8781 44.13 42.6937 43.0606C43.5366 42.0638 43.4822 40.7044 43.4822 40.7044V23.4856C43.4822 23.0506 43.3734 22.8875 42.7391 22.8875C42.1047 22.8875 42.0503 23.1594 42.0503 23.4766V40.6953C42.0322 40.9944 41.9778 41.7828 41.3072 42.4172C40.5731 43.0425 39.8572 42.9609 39.8572 42.9609C39.8572 42.9609 21.7322 42.9609 20.8259 42.9338C20.4816 42.8703 19.9197 42.7434 19.3759 42.0275C18.8684 41.3025 18.9681 40.3962 18.9681 40.3962V23.1775C18.9681 22.7153 18.7325 22.5431 18.2431 22.5431C17.7538 22.5431 17.5 22.7153 17.5 23.1231V40.7406ZM33.8125 24.4281C32.725 24.6637 31.6375 24.8088 29.5531 26.7844C27.4688 28.7781 25.9281 28.6875 24.3875 28.5969C22.8469 28.5063 21.2156 27.0563 20.9438 26.6938C20.6084 26.3403 20.0375 26.5759 19.8562 26.8116C19.7022 27.0472 19.7022 27.455 19.965 27.8084C21.2338 28.9866 22.4119 29.8928 24.6775 30.0741C26.9431 30.2916 29.1181 29.2675 30.5681 27.8084C32.0181 26.3584 32.7431 26.0866 33.8306 25.9053C36.4587 25.4884 37.9994 26.5216 38.9056 27.1741C39.9025 28.2616 40.1744 27.9534 40.4462 27.6453C40.99 26.9294 40.2197 26.3766 39.3588 25.7422C37.5463 24.5641 35.8244 24.1109 33.8306 24.4734L33.8125 24.4281ZM24.75 31.5875C23.5719 31.5875 22.6656 32.5844 22.6656 33.8531C22.6656 35.1219 23.5719 36.1188 24.75 36.1188C25.9281 36.1188 26.8344 35.1219 26.8344 33.8531C26.8344 32.5844 25.9281 31.5875 24.75 31.5875ZM36.5312 32.3669C34.9906 32.3669 33.7219 33.7262 33.7219 35.3575C33.7219 36.9888 34.9906 38.3481 36.5312 38.3481C38.0719 38.3481 39.3406 36.9888 39.3406 35.3575C39.3406 33.7262 38.0719 32.3669 36.5312 32.3669ZM36.5312 33.8169C37.3288 33.8169 37.9813 34.5147 37.9813 35.3575C37.9813 36.2184 37.3288 36.8981 36.5312 36.8981C35.7337 36.8981 35.0812 36.2003 35.0812 35.3575C35.0812 34.4966 35.7337 33.8169 36.5312 33.8169Z" fill="white"/>
  </svg>

  <svg id="product-type-icon-tablet" aria-hidden="true" focusable="false" width="80" height="80" viewBox="0 0 80 80" fill="none">
    <!-- <rect width="80" height="80" fill="#68B738"/> -->
    <path d="M37.8609 26C36.2317 26 34.9646 27.3676 34.9646 29.0999C34.9646 30.8321 36.2317 32.1997 37.8609 32.1997C39.49 32.1997 40.7571 30.8321 40.7571 29.0999C40.7571 27.3676 39.49 26 37.8609 26ZM37.8609 27.1852C38.8564 27.1852 39.5805 28.0331 39.5805 29.0999C39.5805 30.1027 38.7931 31.0145 37.8609 31.0145C36.8653 31.0145 36.1412 30.1666 36.1412 29.0999C36.1412 28.097 36.9196 27.1852 37.8609 27.1852ZM27 50.89C27 52.0752 27.4073 53.0781 28.3576 53.8987C29.3532 54.7557 30.5298 54.6827 30.5298 54.6827H49.5363C50.3146 54.6827 51.3464 54.2998 52.161 53.224C53.0027 52.2211 52.9484 50.8535 52.9484 50.8535V33.5308C52.9484 33.0932 52.8398 32.9291 52.2062 32.9291C51.5727 32.9291 51.5184 33.2026 51.5184 33.5217V50.8444C51.5003 51.1453 51.446 51.9385 50.7762 52.5767C50.0431 53.2058 49.3281 53.1237 49.3281 53.1237C49.3281 53.1237 31.2267 53.1237 30.3216 53.0964C29.9777 53.0325 29.4165 52.9049 28.8735 52.1846C28.3667 51.4553 28.4662 50.5435 28.4662 50.5435V33.2208C28.4662 32.7559 28.2309 32.5826 27.7422 32.5826C27.2534 32.5826 27 32.7559 27 33.1661V50.89ZM43.2913 34.479C42.2052 34.7161 41.1191 34.8619 39.0375 36.8495C36.9558 38.8553 35.4172 38.7641 33.8785 38.6729C32.3399 38.5818 30.7108 37.123 30.4393 36.7583C30.1044 36.4027 29.5342 36.6398 29.3532 36.8768C29.1993 37.1139 29.1993 37.5242 29.4618 37.8797C30.7289 39.065 31.9055 39.9767 34.1682 40.159C36.4308 40.3778 38.603 39.3476 40.0511 37.8797C41.4992 36.421 42.2233 36.1475 43.3094 35.9651C45.9341 35.5457 47.4727 36.5851 48.3778 37.2415C49.3734 38.3356 49.6449 38.0256 49.9164 37.7156C50.4595 36.9954 49.6901 36.4392 48.8303 35.801C47.0202 34.6158 45.3005 34.1599 43.3094 34.5246L43.2913 34.479ZM34.2406 41.6816C33.064 41.6816 32.1589 42.6845 32.1589 43.9609C32.1589 45.2373 33.064 46.2402 34.2406 46.2402C35.4172 46.2402 36.3222 45.2373 36.3222 43.9609C36.3222 42.6845 35.4172 41.6816 34.2406 41.6816ZM46.0065 42.4657C44.4679 42.4657 43.2008 43.8333 43.2008 45.4744C43.2008 47.1155 44.4679 48.483 46.0065 48.483C47.5451 48.483 48.8122 47.1155 48.8122 45.4744C48.8122 43.8333 47.5451 42.4657 46.0065 42.4657ZM46.0065 43.9244C46.803 43.9244 47.4546 44.6265 47.4546 45.4744C47.4546 46.3405 46.803 47.0243 46.0065 47.0243C45.21 47.0243 44.5584 46.3223 44.5584 45.4744C44.5584 44.6082 45.21 43.9244 46.0065 43.9244Z" fill="white"/>
  </svg>

  <svg id="reblace-icon" aria-hidden="true" focusable="false" width="60" height="60" viewBox="0 0 60 60" fill="none">
    <!-- <rect width="60" height="60" fill="#68B738"/> -->
    <path fill-rule="evenodd" clip-rule="evenodd" d="M36.1173 15.0761C36.491 14.9214 36.9211 15.0069 37.2071 15.2929C38.1156 16.2014 39.3038 18.1706 40.2659 21.2108C41.2373 24.2804 42 28.5081 42 34C42 34.5523 41.5523 35 41 35H37.5V44C37.5 44.5523 37.0523 45 36.5 45C35.9477 45 35.5 44.5523 35.5 44V16C35.5 15.5956 35.7436 15.2309 36.1173 15.0761ZM37.5 33H39.9912C39.9053 28.1836 39.2051 24.4875 38.3591 21.8142C38.0807 20.9346 37.7885 20.1715 37.5 19.519V33Z" fill="white"/>
    <path fill-rule="evenodd" clip-rule="evenodd" d="M23.5 15C24.0523 15 24.5 15.4477 24.5 16V44C24.5 44.5523 24.0523 45 23.5 45C22.9477 45 22.5 44.5523 22.5 44V16C22.5 15.4477 22.9477 15 23.5 15Z" fill="white"/>
    <path fill-rule="evenodd" clip-rule="evenodd" d="M19 15C19.5523 15 20 15.4477 20 16V21.5C20 22.0569 20.192 22.8152 20.7009 23.4166C21.18 23.9828 22.0145 24.5 23.4999 24.5C24.0522 24.5 24.4999 24.9477 24.4999 25.5C24.4999 26.0523 24.0522 26.5 23.4999 26.5C21.4855 26.5 20.07 25.7672 19.1741 24.7084C18.308 23.6848 18 22.4431 18 21.5V16C18 15.4477 18.4477 15 19 15Z" fill="white"/>
    <path fill-rule="evenodd" clip-rule="evenodd" d="M28 15C27.4477 15 27 15.4477 27 16V21.5C27 22.0569 26.808 22.8152 26.2991 23.4166C25.82 23.9828 24.9854 24.5 23.4999 24.5C22.9476 24.5 22.5001 24.9477 22.5001 25.5C22.5001 26.0523 22.9476 26.5 23.4999 26.5C25.5144 26.5 26.93 25.7672 27.8259 24.7084C28.692 23.6848 29 22.4431 29 21.5V16C29 15.4477 28.5523 15 28 15Z" fill="white"/>
  </svg>

  <svg id="reblace-icon-tablet" aria-hidden="true" focusable="false" width="80" height="80" viewBox="0 0 80 80" fill="none">
    <!-- <rect width="80" height="80" fill="#68B738"/> -->
    <path fill-rule="evenodd" clip-rule="evenodd" d="M46.6173 25.0761C46.991 24.9214 47.4211 25.0069 47.7071 25.2929C48.6156 26.2014 49.8038 28.1706 50.7659 31.2108C51.7373 34.2804 52.5 38.5081 52.5 44C52.5 44.5523 52.0523 45 51.5 45H48V54C48 54.5523 47.5523 55 47 55C46.4477 55 46 54.5523 46 54V26C46 25.5956 46.2436 25.2309 46.6173 25.0761ZM48 43H50.4912C50.4053 38.1836 49.7051 34.4875 48.8591 31.8142C48.5807 30.9346 48.2885 30.1715 48 29.519V43Z" fill="white"/>
    <path fill-rule="evenodd" clip-rule="evenodd" d="M34 25C34.5523 25 35 25.4477 35 26V54C35 54.5523 34.5523 55 34 55C33.4477 55 33 54.5523 33 54V26C33 25.4477 33.4477 25 34 25Z" fill="white"/>
    <path fill-rule="evenodd" clip-rule="evenodd" d="M29.5 25C30.0523 25 30.5 25.4477 30.5 26V31.5C30.5 32.0569 30.692 32.8152 31.2009 33.4166C31.68 33.9828 32.5145 34.5 33.9999 34.5C34.5522 34.5 34.9999 34.9477 34.9999 35.5C34.9999 36.0523 34.5522 36.5 33.9999 36.5C31.9855 36.5 30.57 35.7672 29.6741 34.7084C28.808 33.6848 28.5 32.4431 28.5 31.5V26C28.5 25.4477 28.9477 25 29.5 25Z" fill="white"/>
    <path fill-rule="evenodd" clip-rule="evenodd" d="M38.5 25C37.9477 25 37.5 25.4477 37.5 26V31.5C37.5 32.0569 37.308 32.8152 36.7991 33.4166C36.32 33.9828 35.4854 34.5 33.9999 34.5C33.4476 34.5 33.0001 34.9477 33.0001 35.5C33.0001 36.0523 33.4476 36.5 33.9999 36.5C36.0144 36.5 37.43 35.7672 38.3259 34.7084C39.192 33.6848 39.5 32.4431 39.5 31.5V26C39.5 25.4477 39.0523 25 38.5 25Z" fill="white"/>
  </svg>

  <svg id="result-icon" aria-hidden="true" focusable="false" width="60" height="60" viewBox="0 0 60 60" fill="none">
    <!-- <rect width="60" height="60" fill="#68B738"/> -->
    <path d="M23.1206 15C22.0538 15 22.0538 16.5831 23.1206 16.5831H29.7878V18.1873C22.9606 18.62 17.5627 24.4142 17.5627 31.4854C17.5627 35.4959 19.3122 39.1159 22.0751 41.5539C22.5552 41.976 22.6192 42.7254 22.1818 43.1897L20.6457 44.7412C19.8989 45.4272 21.0084 46.4931 21.6804 45.7438L23.686 43.7069C24.038 43.3692 24.5607 43.2847 24.9981 43.4958C26.7228 44.3397 28.6191 44.784 30.5432 44.795C32.4673 44.8059 34.3687 44.3833 36.1031 43.5591C36.5298 43.348 37.0632 43.4325 37.4045 43.7702L39.3461 45.7438C40.0288 46.377 41.0102 45.4272 40.3915 44.7412L38.9407 43.2636C38.4926 42.8098 38.5567 42.0605 39.0474 41.6277C40.5031 40.3585 41.6674 38.7959 42.4623 37.0447C43.2571 35.2936 43.6641 33.3944 43.6558 31.4748C43.6558 24.4036 38.226 18.5989 31.388 18.1873V16.5831H38.0553C39.122 16.5831 39.122 15 38.0553 15H23.1206ZM19.0029 31.4748C19.0029 24.9419 24.198 19.6543 30.6093 19.6543C37.0098 19.6543 42.205 24.9419 42.205 31.4748C42.205 38.0183 37.0098 43.3164 30.6093 43.3164C24.2087 43.3164 19.0029 38.0183 19.0029 31.4748ZM29.7985 23.3799C29.7985 22.2823 31.4627 22.2823 31.4627 23.3799V32.0131C31.4627 32.237 31.3728 32.4517 31.2127 32.6101C31.0527 32.7684 30.8356 32.8574 30.6093 32.8574C30.3961 32.8574 30.1915 32.7743 30.0397 32.6262C29.888 32.478 29.8013 32.2767 29.7985 32.0658V23.3799ZM24.8061 25.9973C25.1144 25.9973 25.4102 25.8761 25.6283 25.6603C25.8463 25.4446 25.9688 25.152 25.9688 24.8469C25.9688 24.5418 25.8463 24.2492 25.6283 24.0334C25.4102 23.8177 25.1144 23.6965 24.8061 23.6965C24.5183 23.7239 24.2511 23.8563 24.0567 24.0681C23.8622 24.2798 23.7545 24.5556 23.7545 24.8416C23.7545 25.1277 23.8622 25.4034 24.0567 25.6152C24.2511 25.8269 24.5183 25.9593 24.8061 25.9867V25.9973ZM36.4018 25.9973C36.7102 25.9973 37.0059 25.8761 37.224 25.6603C37.4421 25.4446 37.5646 25.152 37.5646 24.8469C37.5646 24.5418 37.4421 24.2492 37.224 24.0334C37.0059 23.8177 36.7102 23.6965 36.4018 23.6965C36.114 23.7239 35.8468 23.8563 35.6524 24.0681C35.458 24.2798 35.3503 24.5556 35.3503 24.8416C35.3503 25.1277 35.458 25.4034 35.6524 25.6152C35.8468 25.8269 36.114 25.9593 36.4018 25.9867V25.9973ZM25.9688 38.5882C25.9688 40.1185 23.6433 40.1185 23.6433 38.5882C23.6433 37.0579 25.9688 37.0579 25.9688 38.5882ZM30.6093 42.0288C30.7706 42.0441 30.9334 42.0259 31.0872 41.9754C31.241 41.9248 31.3824 41.843 31.5024 41.7352C31.6223 41.6273 31.7182 41.4959 31.7838 41.3493C31.8494 41.2026 31.8833 41.044 31.8833 40.8837C31.8833 40.7233 31.8494 40.5648 31.7838 40.4181C31.7182 40.2715 31.6223 40.14 31.5024 40.0322C31.3824 39.9244 31.241 39.8426 31.0872 39.792C30.9334 39.7414 30.7706 39.7232 30.6093 39.7386C30.3215 39.7659 30.0543 39.8984 29.8599 40.1101C29.6654 40.3219 29.5577 40.5976 29.5577 40.8837C29.5577 41.1697 29.6654 41.4455 29.8599 41.6572C30.0543 41.869 30.3215 42.0014 30.6093 42.0288ZM22.4912 31.6437C22.5067 31.8033 22.4883 31.9643 22.4372 32.1165C22.3861 32.2687 22.3034 32.4086 22.1944 32.5273C22.0854 32.646 21.9525 32.7408 21.8043 32.8057C21.6561 32.8706 21.4958 32.9041 21.3337 32.9041C21.1717 32.9041 21.0114 32.8706 20.8632 32.8057C20.7149 32.7408 20.5821 32.646 20.4731 32.5273C20.3641 32.4086 20.2814 32.2687 20.2303 32.1165C20.1792 31.9643 20.1608 31.8033 20.1763 31.6437C20.204 31.3589 20.3378 31.0946 20.5518 30.9023C20.7659 30.7099 21.0446 30.6033 21.3337 30.6033C21.6229 30.6033 21.9016 30.7099 22.1156 30.9023C22.3296 31.0946 22.4635 31.3589 22.4912 31.6437ZM39.8794 32.794C40.0408 32.8094 40.2036 32.7912 40.3574 32.7406C40.5112 32.6901 40.6526 32.6082 40.7726 32.5004C40.8925 32.3926 40.9884 32.2611 41.054 32.1145C41.1196 31.9679 41.1535 31.8093 41.1535 31.6489C41.1535 31.4886 41.1196 31.33 41.054 31.1834C40.9884 31.0367 40.8925 30.9053 40.7726 30.7975C40.6526 30.6896 40.5112 30.6078 40.3574 30.5573C40.2036 30.5067 40.0408 30.4885 39.8794 30.5038C39.5916 30.5312 39.3245 30.6637 39.13 30.8754C38.9356 31.0871 38.8279 31.3629 38.8279 31.6489C38.8279 31.935 38.9356 32.2108 39.13 32.4225C39.3245 32.6342 39.5916 32.7667 39.8794 32.794ZM37.5646 38.5987C37.5646 40.1185 35.239 40.1185 35.239 38.5882C35.239 37.0579 37.5646 37.0579 37.5646 38.5882V38.5987Z" fill="white"/>
  </svg>

  <svg id="result-icon-tablet" aria-hidden="true" focusable="false" width="80" height="80" viewBox="0 0 80 80" fill="none">
    <!-- <rect width="80" height="80" fill="#68B738"/> -->
    <path d="M32.5308 24C31.4692 24 31.4692 25.5927 32.5308 25.5927H39.1656V27.2066C32.3716 27.6419 27 33.471 27 40.5849C27 44.6196 28.741 48.2615 31.4905 50.7142C31.9682 51.1389 32.0319 51.8927 31.5966 52.3599L30.0679 53.9207C29.3248 54.6109 30.4289 55.6833 31.0977 54.9294L33.0934 52.8802C33.4437 52.5404 33.9639 52.4555 34.3992 52.6678C36.1155 53.5168 38.0026 53.9638 39.9173 53.9748C41.832 53.9859 43.7241 53.5607 45.4501 52.7315C45.8748 52.5192 46.4055 52.6041 46.7453 52.9439L48.6773 54.9294C49.3567 55.5665 50.3334 54.6109 49.7177 53.9207L48.2739 52.4343C47.8281 51.9777 47.8918 51.2238 48.3801 50.7885C49.8287 49.5116 50.9874 47.9396 51.7784 46.1778C52.5693 44.4161 52.9743 42.5055 52.9661 40.5743C52.9661 33.4604 47.5627 27.6206 40.758 27.2066V25.5927H47.3928C48.4544 25.5927 48.4544 24 47.3928 24H32.5308ZM28.4331 40.5743C28.4331 34.0019 33.603 28.6824 39.983 28.6824C46.3525 28.6824 51.5223 34.0019 51.5223 40.5743C51.5223 47.1572 46.3525 52.4873 39.983 52.4873C33.6136 52.4873 28.4331 47.1572 28.4331 40.5743ZM39.1762 32.4305C39.1762 31.3262 40.8323 31.3262 40.8323 32.4305V41.1158C40.8323 41.341 40.7428 41.5571 40.5836 41.7164C40.4243 41.8757 40.2083 41.9652 39.983 41.9652C39.7709 41.9652 39.5673 41.8816 39.4163 41.7326C39.2653 41.5836 39.179 41.381 39.1762 41.1689V32.4305ZM34.2081 35.0637C34.515 35.0637 34.8093 34.9417 35.0263 34.7247C35.2433 34.5076 35.3652 34.2133 35.3652 33.9063C35.3652 33.5994 35.2433 33.305 35.0263 33.088C34.8093 32.8709 34.515 32.749 34.2081 32.749C33.9217 32.7765 33.6558 32.9098 33.4623 33.1228C33.2689 33.3358 33.1617 33.6132 33.1617 33.901C33.1617 34.1888 33.2689 34.4662 33.4623 34.6792C33.6558 34.8922 33.9217 35.0255 34.2081 35.053V35.0637ZM45.7474 35.0637C46.0543 35.0637 46.3486 34.9417 46.5656 34.7247C46.7826 34.5076 46.9045 34.2133 46.9045 33.9063C46.9045 33.5994 46.7826 33.305 46.5656 33.088C46.3486 32.8709 46.0543 32.749 45.7474 32.749C45.461 32.7765 45.1951 32.9098 45.0016 33.1228C44.8082 33.3358 44.701 33.6132 44.701 33.901C44.701 34.1888 44.8082 34.4662 45.0016 34.6792C45.1951 34.8922 45.461 35.0255 45.7474 35.053V35.0637ZM35.3652 47.7306C35.3652 49.2702 33.051 49.2702 33.051 47.7306C33.051 46.191 35.3652 46.191 35.3652 47.7306ZM39.983 51.192C40.1436 51.2074 40.3056 51.1891 40.4586 51.1382C40.6117 51.0874 40.7524 51.005 40.8718 50.8966C40.9912 50.7881 41.0866 50.6558 41.1519 50.5083C41.2171 50.3608 41.2509 50.2013 41.2509 50.04C41.2509 49.8786 41.2171 49.7191 41.1519 49.5716C41.0866 49.4241 40.9912 49.2918 40.8718 49.1833C40.7524 49.0749 40.6117 48.9926 40.4586 48.9417C40.3056 48.8908 40.1436 48.8725 39.983 48.8879C39.6966 48.9155 39.4308 49.0487 39.2373 49.2617C39.0438 49.4747 38.9366 49.7522 38.9366 50.04C38.9366 50.3277 39.0438 50.6052 39.2373 50.8182C39.4308 51.0312 39.6966 51.1644 39.983 51.192ZM31.9045 40.7441C31.9199 40.9047 31.9016 41.0668 31.8507 41.2198C31.7999 41.3729 31.7176 41.5137 31.6091 41.6331C31.5007 41.7525 31.3684 41.8479 31.2209 41.9132C31.0735 41.9785 30.9139 42.0122 30.7527 42.0122C30.5914 42.0122 30.4319 41.9785 30.2844 41.9132C30.1369 41.8479 30.0047 41.7525 29.8962 41.6331C29.7878 41.5137 29.7055 41.3729 29.6546 41.2198C29.6037 41.0668 29.5854 40.9047 29.6009 40.7441C29.6284 40.4577 29.7616 40.1918 29.9746 39.9983C30.1875 39.8047 30.4649 39.6975 30.7527 39.6975C31.0404 39.6975 31.3178 39.8047 31.5307 39.9983C31.7437 40.1918 31.8769 40.4577 31.9045 40.7441ZM49.2081 41.9015C49.3686 41.9169 49.5307 41.8986 49.6837 41.8477C49.8368 41.7969 49.9775 41.7145 50.0969 41.6061C50.2163 41.4976 50.3116 41.3653 50.3769 41.2178C50.4422 41.0703 50.4759 40.9108 50.4759 40.7495C50.4759 40.5881 50.4422 40.4286 50.3769 40.2811C50.3116 40.1336 50.2163 40.0013 50.0969 39.8928C49.9775 39.7844 49.8368 39.702 49.6837 39.6512C49.5307 39.6003 49.3686 39.582 49.2081 39.5974C48.9217 39.625 48.6558 39.7582 48.4624 39.9712C48.2689 40.1842 48.1617 40.4617 48.1617 40.7495C48.1617 41.0372 48.2689 41.3147 48.4624 41.5277C48.6558 41.7407 48.9217 41.8739 49.2081 41.9015ZM46.9045 47.7412C46.9045 49.2702 44.5903 49.2702 44.5903 47.7306C44.5903 46.191 46.9045 46.191 46.9045 47.7306V47.7412Z" fill="white"/>
  </svg>

  <!-- selection-product -->

  <svg id="cat-slim-back" aria-hidden="true" focusable="false" width="50" height="53" viewBox="0 0 50 53" fill="none">
    <!-- <circle cx="25" cy="28" r="25" fill="#68B738"/> -->
    <g clip-path="url(#clip0_94_6)">
      <path d="M35.2034 0H35.008C34.6778 0.187081 34.415 0.473924 34.2571 0.819588C33.968 1.37738 33.7453 1.96735 33.5937 2.57732C33.5612 2.76073 33.4688 2.92811 33.331 3.05315C33.1932 3.17818 33.0179 3.25377 32.8326 3.26804C32.2658 3.36597 31.7288 3.59243 31.2626 3.93012C30.7965 4.26781 30.4135 4.7078 30.1429 5.21649C29.7708 5.87697 29.4526 6.5665 29.1914 7.27835C28.4611 9.17526 27.9006 11.134 27.2114 13.0464C26.8874 13.9175 26.872 13.9175 25.8949 13.9175C24.7274 13.9175 24.8097 13.7371 24.7943 15.0258C24.7943 15.433 24.9177 15.6392 25.3497 15.6186C25.4834 15.6186 25.684 15.5515 25.7354 15.7268C25.7869 15.9021 25.612 15.9794 25.5091 16.0825C24.8994 16.7029 24.1276 17.1388 23.2823 17.3402C22.3051 17.6031 21.3074 17.8093 20.356 18.1289C17.9131 18.9485 15.6554 20.0928 13.8966 22.0309C12.8681 23.2347 12.0445 24.6001 11.4589 26.0722C9.57143 30.5258 8.656 35.2165 7.94629 39.9536C7.612 42.1753 7.37543 44.4072 7.19543 46.6546C7.10286 47.7577 7 48.8763 7 50H24.1411C24.1696 49.7731 24.1283 49.5429 24.0229 49.3402C23.858 48.9289 23.5901 48.5672 23.2451 48.29C22.9 48.0128 22.4895 47.8295 22.0531 47.7577C21.6931 47.6753 21.652 47.567 21.8731 47.2835C22.2338 46.801 22.5103 46.2607 22.6909 45.6856C23.5291 43.2062 23.8531 40.6186 24.2594 38.0567C24.4889 36.0999 25.0894 34.2051 26.0286 32.4742C26.7611 31.2002 27.7382 30.0842 28.9034 29.1907C29.3303 28.866 29.3457 28.866 29.4177 29.4175C29.4691 29.7835 29.4794 30.1598 29.5051 30.5309C29.6595 32.9662 29.6285 35.4097 29.4126 37.8402C29.2184 39.7242 29.1926 41.6217 29.3354 43.5103C29.5399 45.7029 29.9304 47.8739 30.5029 50H37.3429C37.2536 49.442 36.9973 48.9243 36.6078 48.5156C36.2184 48.1069 35.7143 47.8264 35.1623 47.7113C34.5177 47.6087 33.8587 47.6438 33.2286 47.8144C32.92 47.8866 32.7914 47.8144 32.7657 47.4794C32.5529 44.7505 32.7261 42.0051 33.28 39.3247C33.966 36.2304 34.4912 33.1025 34.8537 29.9536C34.9887 28.6819 35.3881 27.4528 36.0263 26.3454C36.6383 25.2526 37.1731 24.1186 37.7749 23.0206C38.0138 22.6214 38.1575 22.1723 38.195 21.7083C38.2325 21.2443 38.1626 20.7779 37.9909 20.3454C37.852 19.9794 37.7183 19.6082 37.5486 19.2577C37.0343 18.2526 36.52 17.2577 36.0469 16.2423C35.7949 15.7268 35.8514 15.6649 36.412 15.6495C37.2503 15.6495 37.2503 15.6495 37.2657 14.8041C37.2657 14.6907 37.2657 14.5773 37.2657 14.4639C37.2657 14.1082 37.132 13.9124 36.7514 13.9485C36.4943 13.9485 36.2371 13.9485 35.9697 13.9485C35.6149 13.9485 35.512 13.799 35.5994 13.433C35.7729 12.838 36.1142 12.306 36.5823 11.9009C37.0503 11.4958 37.6252 11.2349 38.2377 11.1495C39.3772 11.0505 40.5251 11.1252 41.6423 11.3711C41.7712 11.4118 41.9109 11.4001 42.0312 11.3383C42.1515 11.2766 42.2427 11.1699 42.2851 11.0412C42.4909 10.5258 42.7171 10.0103 42.9486 9.49484C43.001 9.40339 43.0242 9.29801 43.015 9.19293C43.0058 9.08785 42.9647 8.98812 42.8971 8.90722C41.2514 6.81443 39.4669 4.86082 37.0343 3.60825C36.9168 3.55754 36.8138 3.47814 36.7347 3.3773C36.6557 3.27646 36.6031 3.15738 36.5817 3.03093C36.444 2.29408 36.225 1.57487 35.9286 0.886598C35.7895 0.519904 35.5349 0.20865 35.2034 0V0Z" fill="black"/>
    </g>
    <defs>
      <clipPath id="clip0_94_6">
        <rect width="36" height="50" fill="white" transform="translate(7)"/>
      </clipPath>
    </defs>
  </svg>

  <svg id="cat-slim-back-tablet" aria-hidden="true" focusable="false" width="200" height="211" viewBox="0 0 200 211" fill="none">
    <!-- <circle cx="100" cy="111" r="100" fill="#68B738"/> -->
      <g clip-path="url(#clip0_2403_755)">
    <path d="M139.68 0H138.92C137.636 0.725875 136.614 1.83883 136 3.18C134.875 5.34423 134.009 7.63331 133.42 10C133.294 10.7116 132.934 11.3611 132.398 11.8462C131.863 12.3313 131.181 12.6246 130.46 12.68C128.256 13.06 126.167 13.9386 124.355 15.2489C122.542 16.5591 121.052 18.2663 120 20.24C118.553 22.8026 117.316 25.478 116.3 28.24C113.46 35.6 111.28 43.2 108.6 50.62C107.34 54 107.28 54 103.48 54C98.94 54 99.26 53.3 99.2 58.3C99.2 59.88 99.68 60.68 101.36 60.6C101.88 60.6 102.66 60.34 102.86 61.02C103.06 61.7 102.38 62 101.98 62.4C99.6086 64.8073 96.6075 66.4984 93.32 67.28C89.52 68.3 85.64 69.1 81.94 70.34C72.44 73.52 63.66 77.96 56.82 85.48C52.8206 90.1507 49.6177 95.4483 47.34 101.16C40 118.44 36.44 136.64 33.68 155.02C32.38 163.64 31.46 172.3 30.76 181.02C30.4 185.3 30 189.64 30 194H96.66C96.7707 193.12 96.6102 192.227 96.2 191.44C95.5589 189.844 94.5171 188.441 93.1753 187.365C91.8335 186.29 90.237 185.578 88.54 185.3C87.14 184.98 86.98 184.56 87.84 183.46C89.2427 181.588 90.318 179.492 91.02 177.26C94.28 167.64 95.54 157.6 97.12 147.66C98.0125 140.068 100.348 132.716 104 126C106.849 121.057 110.649 116.727 115.18 113.26C116.84 112 116.9 112 117.18 114.14C117.38 115.56 117.42 117.02 117.52 118.46C118.12 127.909 118 137.39 117.16 146.82C116.405 154.13 116.304 161.492 116.86 168.82C117.655 177.327 119.174 185.751 121.4 194H148C147.653 191.835 146.656 189.826 145.142 188.241C143.627 186.655 141.667 185.567 139.52 185.12C137.013 184.722 134.45 184.858 132 185.52C130.8 185.8 130.3 185.52 130.2 184.22C129.373 173.632 130.046 162.98 132.2 152.58C134.868 140.574 136.91 128.438 138.32 116.22C138.845 111.286 140.398 106.517 142.88 102.22C145.26 97.98 147.34 93.58 149.68 89.32C150.609 87.771 151.168 86.0286 151.314 84.2282C151.46 82.4279 151.188 80.6182 150.52 78.94C149.98 77.52 149.46 76.08 148.8 74.72C146.8 70.82 144.8 66.96 142.96 63.02C141.98 61.02 142.2 60.78 144.38 60.72C147.64 60.72 147.64 60.72 147.7 57.44C147.7 57 147.7 56.56 147.7 56.12C147.7 54.74 147.18 53.98 145.7 54.12C144.7 54.12 143.7 54.12 142.66 54.12C141.28 54.12 140.88 53.54 141.22 52.12C141.895 49.8116 143.222 47.7473 145.042 46.1755C146.862 44.6037 149.098 43.5912 151.48 43.26C155.911 42.8758 160.376 43.1657 164.72 44.12C165.221 44.2779 165.765 44.2322 166.232 43.9927C166.7 43.7531 167.055 43.3391 167.22 42.84C168.02 40.84 168.9 38.84 169.8 36.84C170.004 36.4852 170.094 36.0763 170.058 35.6686C170.023 35.2608 169.863 34.8739 169.6 34.56C163.2 26.44 156.26 18.86 146.8 14C146.343 13.8033 145.942 13.4952 145.635 13.1039C145.328 12.7127 145.123 12.2506 145.04 11.76C144.505 8.90102 143.653 6.11051 142.5 3.44C141.959 2.01723 140.969 0.809563 139.68 0V0Z" fill="black"/>
    </g>
    <defs>
      <clipPath id="clip0_2403_755">
        <rect width="140" height="194" fill="white" transform="translate(30)"/>
      </clipPath>
    </defs>
  </svg>

  <svg id="cat-slim-back-desktop" aria-hidden="true" focusable="false" width="100" height="106" viewBox="0 0 100 106" fill="none">
    <!-- <circle cx="50" cy="56" r="50" fill="#68B738"/> -->
    <g clip-path="url(#clip0_94552_4000)">
      <path d="M69.84 0H69.46C68.818 0.362938 68.307 0.919413 68 1.59C67.4377 2.67211 67.0047 3.81665 66.71 5C66.6468 5.35582 66.4671 5.68054 66.1992 5.92311C65.9313 6.16567 65.5903 6.31232 65.23 6.34C64.1279 6.52999 63.0837 6.96931 62.1773 7.62443C61.2709 8.27955 60.5262 9.13313 60 10.12C59.2766 11.4013 58.6579 12.739 58.15 14.12C56.73 17.8 55.64 21.6 54.3 25.31C53.67 27 53.64 27 51.74 27C49.47 27 49.63 26.65 49.6 29.15C49.6 29.94 49.84 30.34 50.68 30.3C50.94 30.3 51.33 30.17 51.43 30.51C51.53 30.85 51.19 31 50.99 31.2C49.8043 32.4036 48.3037 33.2492 46.66 33.64C44.76 34.15 42.82 34.55 40.97 35.17C36.22 36.76 31.83 38.98 28.41 42.74C26.4103 45.0754 24.8088 47.7242 23.67 50.58C20 59.22 18.22 68.32 16.84 77.51C16.19 81.82 15.73 86.15 15.38 90.51C15.2 92.65 15 94.82 15 97H48.33C48.3853 96.5599 48.3051 96.1133 48.1 95.72C47.7794 94.9221 47.2586 94.2204 46.5877 93.6827C45.9167 93.1449 45.1185 92.7892 44.27 92.65C43.57 92.49 43.49 92.28 43.92 91.73C44.6214 90.7939 45.159 89.7458 45.51 88.63C47.14 83.82 47.77 78.8 48.56 73.83C49.0063 70.0338 50.1739 66.3579 52 63C53.4244 60.5284 55.3243 58.3634 57.59 56.63C58.42 56 58.45 56 58.59 57.07C58.69 57.78 58.71 58.51 58.76 59.23C59.0601 63.9544 58.9999 68.6948 58.58 73.41C58.2024 77.0649 58.1522 80.7462 58.43 84.41C58.8275 88.6636 59.5869 92.8755 60.7 97H74C73.8264 95.9175 73.328 94.9132 72.5708 94.1203C71.8136 93.3274 70.8334 92.7833 69.76 92.56C68.5066 92.3608 67.2252 92.429 66 92.76C65.4 92.9 65.15 92.76 65.1 92.11C64.6863 86.8159 65.0229 81.4899 66.1 76.29C67.4338 70.287 68.4552 64.2189 69.16 58.11C69.4224 55.643 70.1992 53.2584 71.44 51.11C72.63 48.99 73.67 46.79 74.84 44.66C75.3045 43.8855 75.5841 43.0143 75.657 42.1141C75.7298 41.2139 75.594 40.3091 75.26 39.47C74.99 38.76 74.73 38.04 74.4 37.36C73.4 35.41 72.4 33.48 71.48 31.51C70.99 30.51 71.1 30.39 72.19 30.36C73.82 30.36 73.82 30.36 73.85 28.72C73.85 28.5 73.85 28.28 73.85 28.06C73.85 27.37 73.59 26.99 72.85 27.06C72.35 27.06 71.85 27.06 71.33 27.06C70.64 27.06 70.44 26.77 70.61 26.06C70.9473 24.9058 71.611 23.8737 72.5211 23.0877C73.4312 22.3018 74.549 21.7956 75.74 21.63C77.9557 21.4379 80.1878 21.5829 82.36 22.06C82.6107 22.139 82.8823 22.1161 83.1162 21.9963C83.3502 21.8766 83.5275 21.6695 83.61 21.42C84.01 20.42 84.45 19.42 84.9 18.42C85.002 18.2426 85.0471 18.0381 85.0292 17.8343C85.0113 17.6304 84.9313 17.437 84.8 17.28C81.6 13.22 78.13 9.43 73.4 7C73.1715 6.90163 72.9712 6.7476 72.8175 6.55196C72.6638 6.35633 72.5615 6.12531 72.52 5.88C72.2523 4.45051 71.8264 3.05525 71.25 1.72C70.9795 1.00861 70.4845 0.404782 69.84 0V0Z" fill="black"/>
    </g>
    <defs>
      <clipPath id="clip0_94552_4000">
        <rect width="70" height="97" fill="white" transform="translate(15)"/>
      </clipPath>
    </defs>
  </svg>

  <svg id="cat-pro-back" aria-hidden="true" focusable="false" width="67" height="50" viewBox="0 0 67 50" fill="none">
    <!-- <circle cx="33" cy="25" r="25" fill="#68B738"/> -->
    <g clip-path="url(#clip0_95_1)">
      <path d="M60.5591 13.8784C61.1364 12.96 61.9036 12.1757 62.8091 11.5784C63.3091 11.2284 63.6091 11.2284 63.9091 11.8784C64.3091 12.8284 64.6591 13.8284 64.3591 14.8784C64.3045 15.0565 64.2942 15.2452 64.3291 15.4282C64.3639 15.6112 64.4429 15.7829 64.5591 15.9284C64.8591 16.3284 65.1091 16.7284 65.3591 17.0784C65.6994 17.5103 65.9201 18.0241 65.9991 18.5682C66.078 19.1123 66.0125 19.6676 65.8091 20.1784C65.6256 20.6743 65.5908 21.213 65.7091 21.7284C65.809 22.2234 65.809 22.7334 65.7091 23.2284C65.6687 23.5991 65.5187 23.9494 65.2782 24.2344C65.0377 24.5194 64.7177 24.7262 64.3591 24.8284C63.7196 24.9501 63.1488 25.3069 62.7591 25.8284C62.7119 25.9052 62.6457 25.9686 62.5669 26.0124C62.488 26.0562 62.3993 26.0789 62.3091 26.0784C61.7091 26.1784 60.2091 24.8284 60.2091 24.2284V23.9284C60.2591 22.1284 60.1591 21.9784 58.5091 21.2284C58.1638 21.1066 57.8544 20.9004 57.6091 20.6284C57.3091 20.2284 56.9091 20.2784 56.4591 20.4284C56.0091 20.5784 55.7591 20.8784 55.8091 21.3784C55.9599 22.5889 56.0101 23.8097 55.9591 25.0284C55.9624 25.1675 55.9966 25.3041 56.0591 25.4284C57.6091 27.6784 58.2091 30.3284 58.9591 32.8784C59.5591 34.8284 60.6591 35.8784 62.6591 36.0284C62.9792 36.054 63.2968 36.1041 63.6091 36.1784C64.02 36.2444 64.4017 36.4322 64.7048 36.7174C65.0078 37.0027 65.2183 37.3723 65.3091 37.7784C65.6591 38.8284 65.4591 39.0784 64.4091 39.0784H61.1591C60.7384 39.0997 60.3259 38.9562 60.0091 38.6784C59.5031 38.2514 58.9282 37.9132 58.3091 37.6784C57.6247 37.4258 57.0323 36.9728 56.6091 36.3784C56.0234 35.5602 55.3531 34.806 54.6091 34.1284C53.2091 32.6784 51.7091 31.2784 50.4091 29.7784C49.4195 28.7563 48.8486 27.4006 48.8091 25.9784C48.8091 25.5284 48.7091 25.3284 48.2091 25.5284C48.0594 25.6234 47.8864 25.6753 47.7091 25.6784C46.3091 25.6784 45.6091 26.5284 45.1091 27.7784C44.6591 28.8284 44.0591 29.8284 43.5091 30.8784C43.1972 31.5357 43.0269 32.2511 43.0091 32.9784C43.0091 34.1784 43.3091 34.5784 44.4091 34.9784C45.1091 35.2284 45.7591 35.4784 46.1091 36.1784C46.5091 36.9784 46.4091 37.1784 45.5591 37.2284H42.1591C41.9631 37.2478 41.7659 37.2052 41.5955 37.1065C41.425 37.0078 41.2899 36.8581 41.2091 36.6784L40.3091 35.1784C40.0438 34.7871 39.874 34.3389 39.8132 33.87C39.7524 33.4011 39.8024 32.9245 39.9591 32.4784C40.1755 31.6102 40.1926 30.7042 40.0091 29.8284C39.8831 29.2185 39.8939 28.5882 40.0409 27.9829C40.1879 27.3777 40.4674 26.8126 40.8591 26.3284C41.1591 25.9784 41.1591 25.8284 40.6591 25.7284C38.6146 25.2941 36.6325 24.6054 34.7591 23.6784C34.7459 23.6784 34.7331 23.6732 34.7238 23.6638C34.7144 23.6544 34.7091 23.6417 34.7091 23.6284C33.1091 23.0284 32.8091 23.1284 32.3591 24.7784C31.9591 26.1784 31.5591 27.5784 31.2591 29.0284C30.9091 30.6284 31.3091 32.1284 31.8091 33.6284C32.0091 34.2284 32.6091 34.1784 33.0591 34.3284C34.0591 34.6284 34.9091 35.0284 35.3091 36.0784C35.6591 36.8784 35.6091 36.9784 34.7591 36.9784C33.9091 36.9784 33.0591 36.9284 32.1591 36.9784C31.3997 36.9922 30.6584 36.7451 30.0591 36.2784C27.6591 34.6784 26.9591 32.2284 26.7591 29.5784C26.6591 27.9284 25.7591 26.6284 24.7091 25.3784C24.5091 25.1284 24.3091 25.0284 24.0091 25.2284C22.9359 25.8202 21.8153 26.3219 20.6591 26.7284C18.2462 27.5804 16.1289 29.1077 14.5591 31.1284C13.9729 31.8659 13.5933 32.746 13.4591 33.6784C13.3091 34.5784 13.5591 34.9784 14.4591 35.2284C15.3591 35.4784 15.8091 35.9784 15.9091 36.9284C15.9591 37.3284 15.8091 37.5284 15.4091 37.5284H11.3591C11.2266 37.519 11.0982 37.4778 10.9851 37.4081C10.8719 37.3385 10.7772 37.2425 10.7091 37.1284C10.081 36.3508 9.74494 35.3779 9.75912 34.3784C9.73288 32.6509 9.88366 30.9252 10.2091 29.2284C10.2759 28.7203 10.4656 28.2361 10.7618 27.8178C11.0581 27.3996 11.4519 27.06 11.9091 26.8284C14.8591 25.4284 16.4091 22.7784 17.8091 20.0284C18.1091 19.4784 17.8591 19.3784 17.3591 19.4284C15.9598 19.6227 14.634 20.1737 13.5091 21.0284C12.0362 22.1029 10.6487 23.2897 9.35912 24.5784C7.98394 25.9753 6.16046 26.8427 4.20911 27.0284C0.559114 27.2284 -1.14089 25.1784 -0.990885 21.8784C-0.957354 20.7532 -0.533061 19.6748 0.209115 18.8284C0.467126 18.4939 0.818981 18.2439 1.21975 18.1103C1.62052 17.9767 2.05201 17.9656 2.45912 18.0784C3.20912 18.2784 3.40911 18.6784 3.10911 19.4284C2.95911 19.7284 2.75911 19.9784 2.60911 20.2784C2.39341 20.5849 2.22488 20.922 2.10911 21.2784C1.55911 22.7784 2.30911 23.8284 3.85911 23.9784C5.50911 24.1284 6.85912 23.4284 8.10912 22.4284C9.61508 21.2226 10.9595 19.8277 12.1091 18.2784C12.9687 17.1471 14.0512 16.2041 15.2895 15.5075C16.5279 14.8109 17.8959 14.3756 19.3091 14.2284C20.4591 14.0784 21.4591 13.5784 22.5591 13.2784C24.6164 12.6512 26.7586 12.3476 28.9091 12.3784C29.9052 12.4199 30.8974 12.2317 31.8091 11.8284C34.2591 10.8284 36.8091 10.8284 39.3591 11.3284C41.3591 11.7284 43.3591 12.2284 45.3091 12.7284C46.4696 12.9447 47.6629 12.9106 48.8091 12.6284C51.0034 12.0722 53.248 11.7372 55.5091 11.6284C56.9904 11.5564 58.4667 11.8482 59.8091 12.4784C60.8091 12.9284 60.8091 12.9284 60.5591 13.8784Z" fill="black"/>
    </g>
    <defs>
      <clipPath id="clip0_95_1">
        <rect width="67" height="28" fill="white" transform="translate(0 11)"/>
      </clipPath>
    </defs>
  </svg>

  <svg id="cat-pro-back-tablet" aria-hidden="true" focusable="false" width="268" height="200" viewBox="0 0 268 200" fill="none">
    <!-- <circle cx="134" cy="100" r="100" fill="#68B738"/> -->
    <g clip-path="url(#clip0_2403_774)">
      <path d="M246.236 55.5137C248.545 51.8399 251.614 48.7029 255.236 46.3137C257.236 44.9137 258.436 44.9137 259.636 47.5137C261.236 51.3137 262.636 55.3137 261.436 59.5137C261.218 60.226 261.177 60.9809 261.316 61.7128C261.456 62.4447 261.772 63.1315 262.236 63.7137C263.436 65.3137 264.436 66.9137 265.436 68.3137C266.797 70.0412 267.68 72.0963 267.996 74.2728C268.312 76.4492 268.05 78.6705 267.236 80.7137C266.502 82.6973 266.363 84.8522 266.836 86.9137C267.236 88.8937 267.236 90.9337 266.836 92.9137C266.675 94.3965 266.075 95.7975 265.113 96.9375C264.151 98.0775 262.871 98.9048 261.436 99.3137C258.878 99.8005 256.595 101.227 255.036 103.314C254.848 103.621 254.583 103.874 254.267 104.049C253.952 104.225 253.597 104.316 253.236 104.314C250.836 104.714 244.836 99.3137 244.836 96.9137V95.7137C245.036 88.5137 244.636 87.9137 238.036 84.9137C236.655 84.4265 235.417 83.6015 234.436 82.5137C233.236 80.9137 231.636 81.1137 229.836 81.7137C228.036 82.3137 227.036 83.5137 227.236 85.5137C227.84 90.3554 228.04 95.2388 227.836 100.114C227.85 100.67 227.986 101.217 228.236 101.714C234.436 110.714 236.836 121.314 239.836 131.514C242.236 139.314 246.636 143.514 254.636 144.114C255.917 144.216 257.187 144.416 258.436 144.714C260.08 144.978 261.607 145.729 262.819 146.87C264.031 148.011 264.873 149.489 265.236 151.114C266.636 155.314 265.836 156.314 261.636 156.314H248.636C246.953 156.399 245.303 155.825 244.036 154.714C242.012 153.005 239.713 151.653 237.236 150.714C234.499 149.703 232.129 147.891 230.436 145.514C228.094 142.241 225.412 139.224 222.436 136.514C216.836 130.714 210.836 125.114 205.636 119.114C201.678 115.025 199.395 109.602 199.236 103.914C199.236 102.114 198.836 101.314 196.836 102.114C196.238 102.494 195.546 102.701 194.836 102.714C189.236 102.714 186.436 106.114 184.436 111.114C182.636 115.314 180.236 119.314 178.036 123.514C176.789 126.143 176.108 129.005 176.036 131.914C176.036 136.714 177.236 138.314 181.636 139.914C184.436 140.914 187.036 141.914 188.436 144.714C190.036 147.914 189.636 148.714 186.236 148.914H172.636C171.852 148.991 171.064 148.821 170.382 148.426C169.7 148.031 169.16 147.432 168.836 146.714L165.236 140.714C164.175 139.148 163.496 137.356 163.253 135.48C163.01 133.605 163.21 131.698 163.836 129.914C164.702 126.441 164.77 122.817 164.036 119.314C163.532 116.874 163.576 114.353 164.164 111.932C164.752 109.511 165.869 107.25 167.436 105.314C168.636 103.914 168.636 103.314 166.636 102.914C158.458 101.176 150.53 98.4217 143.036 94.7137C142.983 94.7137 142.933 94.6926 142.895 94.6551C142.858 94.6176 142.836 94.5667 142.836 94.5137C136.436 92.1137 135.236 92.5137 133.436 99.1137C131.836 104.714 130.236 110.314 129.036 116.114C127.636 122.514 129.236 128.514 131.236 134.514C132.036 136.914 134.436 136.714 136.236 137.314C140.236 138.514 143.636 140.114 145.236 144.314C146.636 147.514 146.436 147.914 143.036 147.914C139.636 147.914 136.236 147.714 132.636 147.914C129.599 147.969 126.634 146.98 124.236 145.114C114.636 138.714 111.836 128.914 111.036 118.314C110.636 111.714 107.036 106.514 102.836 101.514C102.036 100.514 101.236 100.114 100.036 100.914C95.7434 103.281 91.2614 105.288 86.6365 106.914C76.985 110.322 68.5157 116.431 62.2365 124.514C59.8918 127.464 58.3732 130.984 57.8365 134.714C57.2365 138.314 58.2365 139.914 61.8365 140.914C65.4365 141.914 67.2365 143.914 67.6365 147.714C67.8365 149.314 67.2365 150.114 65.6365 150.114H49.4365C48.9063 150.076 48.393 149.911 47.9403 149.632C47.4876 149.354 47.1089 148.97 46.8365 148.514C44.3242 145.403 42.9798 141.512 43.0365 137.514C42.9315 130.604 43.5346 123.701 44.8365 116.914C45.1034 114.881 45.8623 112.944 47.0473 111.271C48.2323 109.598 49.8075 108.24 51.6365 107.314C63.4365 101.714 69.6365 91.1137 75.2365 80.1137C76.4365 77.9137 75.4365 77.5137 73.4365 77.7137C67.8391 78.4908 62.5358 80.6947 58.0365 84.1137C52.1448 88.4114 46.5949 93.1589 41.4365 98.3137C35.9358 103.901 28.6418 107.371 20.8365 108.114C6.23646 108.914 -0.56354 100.714 0.0364599 87.5137C0.170585 83.0129 1.86775 78.6993 4.83646 75.3137C5.8685 73.9757 7.27593 72.9757 8.87899 72.4413C10.4821 71.907 12.208 71.8625 13.8365 72.3137C16.8365 73.1137 17.6365 74.7137 16.4365 77.7137C15.8365 78.9137 15.0365 79.9137 14.4365 81.1137C13.5737 82.3396 12.8995 83.6879 12.4365 85.1137C10.2365 91.1137 13.2365 95.3137 19.4365 95.9137C26.0365 96.5137 31.4365 93.7137 36.4365 89.7137C42.4603 84.8902 47.8379 79.311 52.4365 73.1137C55.875 68.5885 60.2046 64.8163 65.1581 62.03C70.1116 59.2436 75.5837 57.5024 81.2365 56.9137C85.8365 56.3137 89.8365 54.3137 94.2365 53.1137C102.465 50.6049 111.034 49.3904 119.636 49.5137C123.621 49.6796 127.59 48.9269 131.236 47.3137C141.036 43.3137 151.236 43.3137 161.436 45.3137C169.436 46.9137 177.436 48.9137 185.236 50.9137C189.878 51.7787 194.651 51.6423 199.236 50.5137C208.014 48.2888 216.992 46.9488 226.036 46.5137C231.961 46.2254 237.867 47.3928 243.236 49.9137C247.236 51.7137 247.236 51.7137 246.236 55.5137Z" fill="black"/>
    </g>
    <defs>
      <clipPath id="clip0_2403_774">
        <rect width="268" height="112" fill="white" transform="translate(0 44)"/>
      </clipPath>
    </defs>
  </svg>

  <svg id="cat-pro-back-desktop" aria-hidden="true" focusable="false" width="134" height="100" viewBox="0 0 134 100" fill="none">
    <!-- <circle cx="69" cy="50" r="50" fill="#68B738"/> -->
    <g clip-path="url(#clip0_94552_4019)">
      <path d="M123.118 25.7569C124.273 23.9199 125.807 22.3515 127.618 21.1569C128.618 20.4569 129.218 20.4569 129.818 21.7569C130.618 23.6569 131.318 25.6569 130.718 27.7569C130.609 28.113 130.588 28.4904 130.658 28.8564C130.728 29.2223 130.886 29.5658 131.118 29.8569C131.718 30.6569 132.218 31.4569 132.718 32.1569C133.399 33.0206 133.84 34.0482 133.998 35.1364C134.156 36.2246 134.025 37.3352 133.618 38.3569C133.251 39.3487 133.182 40.4261 133.418 41.4569C133.618 42.4469 133.618 43.4668 133.418 44.4569C133.337 45.1983 133.037 45.8987 132.556 46.4688C132.075 47.0388 131.435 47.4524 130.718 47.6569C129.439 47.9002 128.298 48.6137 127.518 49.6569C127.424 49.8105 127.291 49.9372 127.134 50.0247C126.976 50.1123 126.799 50.1578 126.618 50.1569C125.418 50.3569 122.418 47.6569 122.418 46.4569V45.8569C122.518 42.2569 122.318 41.9569 119.018 40.4569C118.328 40.2133 117.709 39.8007 117.218 39.2569C116.618 38.4569 115.818 38.5569 114.918 38.8569C114.018 39.1569 113.518 39.7569 113.618 40.7569C113.92 43.1777 114.02 45.6194 113.918 48.0569C113.925 48.335 113.993 48.6083 114.118 48.8569C117.218 53.3569 118.418 58.6569 119.918 63.7569C121.118 67.6569 123.318 69.7569 127.318 70.0569C127.958 70.1079 128.594 70.2082 129.218 70.3569C130.04 70.4889 130.803 70.8644 131.41 71.4349C132.016 72.0054 132.437 72.7445 132.618 73.5569C133.318 75.6569 132.918 76.1569 130.818 76.1569H124.318C123.477 76.1994 122.652 75.9124 122.018 75.3569C121.006 74.5027 119.856 73.8265 118.618 73.3569C117.249 72.8516 116.065 71.9455 115.218 70.7569C114.047 69.1203 112.706 67.612 111.218 66.2569C108.418 63.3569 105.418 60.5569 102.818 57.5569C100.839 55.5127 99.6973 52.8012 99.6182 49.9569C99.6182 49.0569 99.4182 48.6569 98.4182 49.0569C98.1188 49.2468 97.7728 49.3506 97.4182 49.3569C94.6182 49.3569 93.2182 51.0569 92.2182 53.5569C91.3182 55.6569 90.1182 57.6569 89.0182 59.7569C88.3945 61.0714 88.0538 62.5023 88.0182 63.9569C88.0182 66.3569 88.6182 67.1569 90.8182 67.9569C92.2182 68.4569 93.5182 68.9569 94.2182 70.3569C95.0182 71.9569 94.8182 72.3569 93.1182 72.4569H86.3182C85.9262 72.4957 85.5319 72.4104 85.191 72.213C84.8501 72.0156 84.5798 71.7162 84.4182 71.3569L82.6182 68.3569C82.0876 67.5741 81.7479 66.6779 81.6264 65.7401C81.5048 64.8023 81.6048 63.849 81.9182 62.9569C82.351 61.2204 82.3852 59.4084 82.0182 57.6569C81.7662 56.437 81.7879 55.1764 82.0819 53.9659C82.3758 52.7554 82.9347 51.6252 83.7182 50.6569C84.3182 49.9569 84.3182 49.6569 83.3182 49.4569C79.2291 48.5882 75.2649 47.2108 71.5182 45.3569C71.4917 45.3569 71.4663 45.3463 71.4475 45.3276C71.4288 45.3088 71.4182 45.2834 71.4182 45.2569C68.2182 44.0569 67.6182 44.2569 66.7182 47.5569C65.9182 50.3569 65.1182 53.1569 64.5182 56.0569C63.8182 59.2569 64.6182 62.2569 65.6182 65.2569C66.0182 66.4569 67.2182 66.3569 68.1182 66.6569C70.1182 67.2569 71.8182 68.0569 72.6182 70.1569C73.3182 71.7569 73.2182 71.9569 71.5182 71.9569C69.8182 71.9569 68.1182 71.8569 66.3182 71.9569C64.7993 71.9844 63.3169 71.4902 62.1182 70.5569C57.3182 67.3569 55.9182 62.4569 55.5182 57.1569C55.3182 53.8569 53.5182 51.2569 51.4182 48.7569C51.0182 48.2569 50.6182 48.0569 50.0182 48.4569C47.8717 49.6404 45.6307 50.6439 43.3182 51.4569C38.4925 53.1608 34.2579 56.2153 31.1182 60.2569C29.9459 61.7318 29.1866 63.4919 28.9182 65.3569C28.6182 67.1569 29.1182 67.9569 30.9182 68.4569C32.7182 68.9569 33.6182 69.9569 33.8182 71.8569C33.9182 72.6569 33.6182 73.0569 32.8182 73.0569H24.7182C24.4531 73.0381 24.1965 72.9555 23.9702 72.8162C23.7438 72.6769 23.5545 72.485 23.4182 72.2569C22.1621 70.7016 21.4899 68.7558 21.5182 66.7569C21.4658 63.3018 21.7673 59.8505 22.4182 56.4569C22.5517 55.4405 22.9311 54.4721 23.5236 53.6357C24.1161 52.7992 24.9038 52.12 25.8182 51.6569C31.7182 48.8569 34.8182 43.5569 37.6182 38.0569C38.2182 36.9569 37.7182 36.7569 36.7182 36.8569C33.9196 37.2454 31.2679 38.3474 29.0182 40.0569C26.0724 42.2057 23.2975 44.5795 20.7182 47.1569C17.9679 49.9505 14.3209 51.6855 10.4182 52.0569C3.11823 52.4569 -0.28177 48.3569 0.0182299 41.7569C0.0852924 39.5065 0.933877 37.3496 2.41823 35.6569C2.93425 34.9879 3.63796 34.4878 4.4395 34.2207C5.24103 33.9535 6.10401 33.9313 6.91823 34.1569C8.41823 34.5569 8.81823 35.3569 8.21823 36.8569C7.91823 37.4569 7.51823 37.9569 7.21823 38.5569C6.78683 39.1698 6.44975 39.844 6.21823 40.5569C5.11823 43.5569 6.61823 45.6569 9.71823 45.9569C13.0182 46.2569 15.7182 44.8569 18.2182 42.8569C21.2302 40.4451 23.9189 37.6555 26.2182 34.5569C27.9375 32.2943 30.1023 30.4081 32.5791 29.015C35.0558 27.6218 37.7918 26.7512 40.6182 26.4569C42.9182 26.1569 44.9182 25.1569 47.1182 24.5569C51.2327 23.3025 55.5172 22.6952 59.8182 22.7569C61.8103 22.8398 63.7948 22.4634 65.6182 21.6569C70.5182 19.6569 75.6182 19.6569 80.7182 20.6569C84.7182 21.4569 88.7182 22.4569 92.6182 23.4569C94.9392 23.8893 97.3257 23.8211 99.6182 23.2569C104.007 22.1444 108.496 21.4744 113.018 21.2569C115.981 21.1127 118.933 21.6964 121.618 22.9569C123.618 23.8569 123.618 23.8569 123.118 25.7569Z" fill="black"/>
    </g>
    <defs>
      <clipPath id="clip0_94552_4019">
        <rect width="134" height="56" fill="white" transform="translate(0 20)"/>
      </clipPath>
    </defs>
  </svg>

  <!-- index -->

  <svg id="weight-back" aria-hidden="true" focusable="false" width="124" height="56" viewBox="0 0 124 56" fill="none">
    <path fill-rule="evenodd" clip-rule="evenodd" d="M3 1H121C122.105 1 123 1.89543 123 3V53C123 54.1046 122.105 55 121 55H105V56H121C122.657 56 124 54.6569 124 53V3C124 1.34315 122.657 0 121 0H3C1.34315 0 0 1.34314 0 3V53C0 54.6569 1.34314 56 3 56H18V55H3C1.89543 55 1 54.1046 1 53V3C1 1.89543 1.89543 1 3 1Z" fill="#CDCDCD"/>
  </svg>

  <svg id="weight-back-tablet" aria-hidden="true" focusable="false" width="162" height="72" viewBox="0 0 162 72" fill="none">
    <path fill-rule="evenodd" clip-rule="evenodd" d="M3 1H159C160.105 1 161 1.89543 161 3V69C161 70.1046 160.105 71 159 71H152V72H159C160.657 72 162 70.6569 162 69V3C162 1.34315 160.657 0 159 0H3C1.34315 0 0 1.34315 0 3V69C0 70.6569 1.34314 72 3 72H10V71H3C1.89543 71 1 70.1046 1 69V3C1 1.89543 1.89543 1 3 1Z" fill="#CDCDCD"/>
  </svg>

  <!-- catalog -->

  <svg id='plus' aria-hidden="true" focusable="false" width="30" height="30" fill="none">
    <path stroke="#D3D3D3" stroke-width="2" d="M15 0v30M30 15H0"/>
  </svg>

  <svg id="banner-icon" aria-hidden="true" focusable="false" width="78" height="81" fill="none">
    <path fill="#fff" d="M64.02 35.63H14.03a3.18 3.18 0 0 1-3.18-3.16V23a3.18 3.18 0 0 1 3.18-3.16h49.98A3.17 3.17 0 0 1 67.2 23v9.47a3.17 3.17 0 0 1-3.18 3.16ZM14.03 22.26c-.4 0-.74.34-.74.74v9.47c0 .4.33.74.74.74h49.98c.41 0 .75-.33.75-.74V23c0-.4-.34-.74-.75-.74H14.03Z"/>
    <path fill="#fff" d="M57.04 68.08H21A6.11 6.11 0 0 1 14.87 62V34.42c0-.67.55-1.21 1.22-1.21.68 0 1.22.54 1.22 1.21V62A3.68 3.68 0 0 0 21 65.66h36.04a3.68 3.68 0 0 0 3.7-3.67V34.42a1.22 1.22 0 0 1 2.44 0V62a6.11 6.11 0 0 1-6.14 6.1Z"/>
    <path fill="#fff" d="M39.02 68.08c-.67 0-1.22-.54-1.22-1.2V34.41c0-.67.55-1.21 1.22-1.21.68 0 1.22.54 1.22 1.21v32.45c0 .67-.54 1.21-1.22 1.21ZM23.81 22.26a7.81 7.81 0 0 1-3.17-10.6A7.9 7.9 0 0 1 31.3 8.5c5.82 3.13 8.96 11.86 9.09 12.23l-2.3.8c-.03-.08-2.96-8.22-7.95-10.9a5.45 5.45 0 0 0-7.36 2.17 5.4 5.4 0 0 0 2.2 7.33l-1.17 2.13Z"/>
    <path fill="#fff" d="m54.23 22.26-1.16-2.14a5.38 5.38 0 0 0-1.03-9.92 5.42 5.42 0 0 0-4.14.43c-4.98 2.68-7.91 10.82-7.94 10.9l-2.3-.8c.13-.37 3.27-9.1 9.08-12.23a7.86 7.86 0 0 1 11.29 9.1c-.6 2-1.95 3.66-3.8 4.66ZM61.95 51.86H16.09c-.67 0-1.22-.55-1.22-1.21 0-.67.55-1.22 1.22-1.22h45.86a1.21 1.21 0 1 1 0 2.42Z"/>
  </svg>

  <!-- social -->

  <svg id="vk" width="28" height="22" fill="currentColor">
    <path d="M1 5.34c0-.86.52-1.32 1.55-1.38l3.97.02c.26 0 .44.13.53.38.4 1.26.86 2.34 1.37 3.25.5.92 1.17 1.97 1.99 3.16.07.15.18.23.34.23.13 0 .22-.06.3-.18l.07-.28.03-4.35c0-.3-.07-.5-.23-.6-.15-.1-.43-.18-.83-.23-.32-.05-.48-.23-.48-.55 0-.07 0-.12.02-.15.38-1.09 1.44-1.63 3.2-1.63l1.5-.03c.67 0 1.23.16 1.67.48.44.32.67.82.67 1.5v5.72c.12.08.24.12.34.12.27 0 .5-.15.7-.45 1.95-2.58 3-4.31 3.17-5.18 0-.02.01-.06.05-.13.12-.25.33-.47.61-.65.29-.19.53-.31.75-.38a.55.55 0 0 1 .24-.05h4.13l.26.03c.36 0 .63.16.83.47.07.1.12.21.15.33a2.4 2.4 0 0 1 .06.55v.18a6.11 6.11 0 0 1-.94 2.2c-.5.78-1.15 1.62-1.93 2.53-.79.9-1.27 1.5-1.47 1.78-.16.2-.24.39-.24.56 0 .13.07.28.21.45l3.9 4.63c.2.26.31.56.31.88 0 .38-.16.7-.48.95-.32.25-.7.4-1.14.43l-.46.02h-4.04c-.02 0-.06 0-.11.02a.86.86 0 0 1-.1.01c-.4 0-.76-.16-1.1-.48-.12-.13-.96-1.12-2.5-2.97a1.39 1.39 0 0 0-.38-.32 38.47 38.47 0 0 0-.53 2.24l-.08.42a1.4 1.4 0 0 1-1.12 1.06l-.37.02h-2.61c-1.48 0-2.95-.63-4.41-1.9a19.3 19.3 0 0 1-3.96-4.95 47.51 47.51 0 0 1-3.28-7.05A1.92 1.92 0 0 1 1 5.34Zm16.01 6.51c-.37 0-.7-.1-1.01-.29a.9.9 0 0 1-.45-.79V5c0-.34-.1-.58-.27-.72-.18-.14-.49-.21-.93-.21l-1.52.05c-.76 0-1.34.12-1.73.37.78.36 1.17.93 1.17 1.71v4.43a1.5 1.5 0 0 1-.53 1.04c-.32.28-.68.42-1.07.42-.53 0-.94-.24-1.22-.73a26.16 26.16 0 0 1-3.1-5.63l-.23-.66-3.55-.02c-.23 0-.36.01-.38.03-.03.03-.04.1-.04.22 0 .15.01.3.05.48l.56 1.4c1.49 3.64 3.11 6.51 4.86 8.6 1.75 2.1 3.47 3.15 5.16 3.15h2.66c.1 0 .19-.03.24-.09.05-.06.1-.17.13-.34l.06-.25.5-2.21c.15-.3.27-.5.38-.6.2-.2.42-.28.69-.28.43 0 .86.24 1.3.73l2.27 2.71c.14.22.3.33.45.33h4.4c.53 0 .8-.13.8-.38a.47.47 0 0 0-.08-.25l-3.87-4.55c-.3-.35-.45-.73-.45-1.13 0-.4.14-.8.43-1.16.23-.34.68-.9 1.34-1.67.67-.78 1.25-1.51 1.75-2.19.5-.68.82-1.3.98-1.85l.08-.33a.37.37 0 0 1-.02-.16c0-.07-.01-.14-.03-.19h-4.18c-.27.1-.48.25-.64.45L21.8 6c-.45 1.16-1.6 2.94-3.5 5.36-.36.33-.8.5-1.3.5Z"/>
  </svg>

  <svg id="youtube" width="28" height="22" fill="currentColor">
    <path d="m17.85 10.793-5.236-3.491a.655.655 0 0 0-1.014.545v6.982a.654.654 0 0 0 1.014.546l5.237-3.491a.655.655 0 0 0 0-1.091Zm-4.94 2.814V9.07l3.403 2.27-3.404 2.268Zm12.48-8.563a2.4 2.4 0 0 0-1.452-1.637C20.218 1.978 14.251 2 14 2c-.25 0-6.218-.022-9.938 1.407A2.4 2.4 0 0 0 2.61 5.044C2.327 6.113 2 8.076 2 11.338c0 3.262.327 5.226.61 6.295a2.4 2.4 0 0 0 1.452 1.636c3.72 1.43 9.687 1.407 9.938 1.407h.076c.753 0 6.317-.043 9.862-1.407a2.4 2.4 0 0 0 1.451-1.636c.284-1.07.611-3.033.611-6.295s-.327-5.225-.61-6.294Zm-1.266 12.261a1.09 1.09 0 0 1-.655.742c-3.49 1.342-9.404 1.32-9.469 1.32-.066 0-5.978.022-9.47-1.32a1.09 1.09 0 0 1-.654-.742c-.261-1.003-.567-2.847-.567-5.967 0-3.12.306-4.963.567-5.967a1.09 1.09 0 0 1 .655-.742C8.02 3.287 13.935 3.31 14 3.31c.066 0 5.978-.022 9.47 1.32a1.092 1.092 0 0 1 .654.742c.262 1.004.567 2.847.567 5.967 0 3.12-.305 4.964-.567 5.967Z"/>
  </svg>

  <svg id="telegram" width="28" height="22" fill="currentColor">
    <path fill-rule="evenodd" d="M23.46 3.15c.18.15.27.38.23.61l-2.63 15.76a.66.66 0 0 1-1.01.44l-7.88-5.25a.66.66 0 0 1-.15-.96l2.61-3.26-4.36 2.9a.66.66 0 0 1-.65.05L4.36 10.8a.66.66 0 0 1 .08-1.2l18.38-6.57a.66.66 0 0 1 .64.11ZM6.33 10.32l3.53 1.77 7.56-5.04a.66.66 0 0 1 .88.96l-4.8 6 6.43 4.3 2.28-13.66-15.88 5.67Z" clip-rule="evenodd"/>
  </svg>

  <!-- copyright -->

  <svg id="copyright__logo" width="27" height="34" fill="curentColor">
    <g clip-path="url(#a)">
      <path fill="currentColor" d="M13.643.016 13.5 0 0 1.407v24.606L13.5 34 27 26.013V1.407L13.643.016Zm11.591 25L13.5 31.956 1.766 25.015V14.93l11.685 6.916.02 1.253-8.017-4.743-.011 1.225 8.046 4.809.02 1.286-8.045-4.758-.01 1.226L13.5 26.95l8.124-4.833V16.91l3.62-2.15-.01 10.256Zm0-11.564-3.22 1.88-1.482.875-7.065-4.187-.011 1.225 6.04 3.573-.053.031-.13.076-.86.492-4.986-2.948-.011 1.225 3.936 2.328-.933.61-.021.012-2.971-1.742-.011 1.225 1.947 1.135-1.988 1.186-11.618-6.872 11.638-6.958 11.8 6.834Zm0-1.225L13.44 5.31 1.766 12.22V2.99L13.5 1.764 25.234 2.99v9.237Z"/>
    </g>
    <defs>
      <clipPath id="a">
      <path fill="#fff" d="M0 0h27v34H0z"/>
    </clipPath>
    </defs>
  </svg>

</svg>
